<svg width="150" height="150" viewBox="0 0 150 150" fill="none" xmlns="http://www.w3.org/2000/svg">
<g filter="url(#filter0_d_1_230)">
<circle cx="75" cy="63" r="50" fill="url(#paint0_linear_1_230)"/>
</g>
<path fill-rule="evenodd" clip-rule="evenodd" d="M69.5601 55.39C70.9201 55.39 72.2401 54.68 73.1601 53.45C74.0201 52.3 74.5001 50.79 74.5001 49.2C74.5001 47.61 74.0301 46.1 73.1601 44.95C72.2401 43.71 70.9201 43 69.5601 43C68.2001 43 66.8801 43.71 65.9601 44.94C65.1001 46.09 64.6201 47.6 64.6201 49.19C64.6201 50.78 65.0901 52.29 65.9601 53.44C66.8801 54.68 68.2001 55.39 69.5601 55.39ZM75 58.7C70.46 58.7 66.2 60.47 62.99 63.67C59.78 66.87 58.02 71.1399 58.02 75.68C58.02 77.11 58.43 78.49 59.21 79.68C60.57 81.7599 62.86 83 65.34 83C67.38 83 68.97 82.5299 70.5 82.07C71.94 81.6399 73.3 81.24 75 81.24C76.7 81.24 78.06 81.6399 79.5 82.07C81.04 82.5299 82.63 83 84.66 83C87.14 83 89.43 81.7599 90.79 79.68C91.57 78.49 91.98 77.1 91.98 75.68C91.98 71.1399 90.21 66.88 87.01 63.67C83.8 60.47 79.54 58.7 75 58.7ZM78.77 71.08H76.18V73.67C76.18 74.32 75.66 74.84 75.01 74.84C74.36 74.84 73.84 74.32 73.84 73.67V71.08H71.25C70.6 71.08 70.08 70.56 70.08 69.91C70.08 69.26 70.6 68.74 71.25 68.74H73.84V66.15C73.84 65.5 74.36 64.9799 75.01 64.9799C75.66 64.9799 76.18 65.5 76.18 66.15V68.74H78.77C79.42 68.74 79.94 69.26 79.94 69.91C79.94 70.56 79.41 71.08 78.77 71.08ZM84.04 53.45C83.12 54.68 81.8 55.39 80.44 55.39C79.08 55.39 77.76 54.68 76.84 53.44C75.98 52.29 75.5 50.78 75.5 49.19C75.5 47.6 75.98 46.09 76.84 44.94C77.76 43.71 79.08 43 80.44 43C81.8 43 83.11 43.71 84.04 44.95C84.91 46.1 85.38 47.61 85.38 49.2C85.38 50.79 84.9 52.3 84.04 53.45ZM93.8499 50.1299C93.0399 49.0499 91.8899 48.4399 90.6899 48.4399C89.4899 48.4399 88.3399 49.0599 87.5299 50.1299C86.7899 51.1199 86.3799 52.4199 86.3799 53.7899C86.3799 55.1599 86.7899 56.4599 87.5299 57.4499C88.3399 58.5299 89.4899 59.1399 90.6899 59.1399C91.8899 59.1399 93.0399 58.5199 93.8499 57.4499C94.5899 56.4599 94.9999 55.1599 94.9999 53.7999C94.9999 52.4299 94.5899 51.1299 93.8499 50.1299ZM63.62 53.7999C63.62 55.1699 63.21 56.4699 62.47 57.4599C61.66 58.5299 60.51 59.1499 59.31 59.1499C58.11 59.1499 56.96 58.5399 56.15 57.4599C55.41 56.4699 55 55.1699 55 53.7999C55 52.4299 55.41 51.1299 56.15 50.1299C56.96 49.0599 58.11 48.4399 59.31 48.4399C60.51 48.4399 61.66 49.0599 62.47 50.1399C63.21 51.1299 63.62 52.4299 63.62 53.7999Z" fill="url(#paint1_linear_1_230)"/>
<defs>
<filter id="filter0_d_1_230" x="0" y="0" width="150" height="150" filterUnits="userSpaceOnUse" color-interpolation-filters="sRGB">
<feFlood flood-opacity="0" result="BackgroundImageFix"/>
<feColorMatrix in="SourceAlpha" type="matrix" values="0 0 0 0 0 0 0 0 0 0 0 0 0 0 0 0 0 0 127 0" result="hardAlpha"/>
<feOffset dy="12"/>
<feGaussianBlur stdDeviation="12.5"/>
<feComposite in2="hardAlpha" operator="out"/>
<feColorMatrix type="matrix" values="0 0 0 0 1 0 0 0 0 0.384314 0 0 0 0 0.211765 0 0 0 0.25 0"/>
<feBlend mode="normal" in2="BackgroundImageFix" result="effect1_dropShadow_1_230"/>
<feBlend mode="normal" in="SourceGraphic" in2="effect1_dropShadow_1_230" result="shape"/>
</filter>
<linearGradient id="paint0_linear_1_230" x1="75" y1="13" x2="75" y2="113" gradientUnits="userSpaceOnUse">
<stop stop-color="#FFBBA9"/>
<stop offset="1" stop-color="#FF6236"/>
</linearGradient>
<linearGradient id="paint1_linear_1_230" x1="74.9999" y1="43" x2="75" y2="83" gradientUnits="userSpaceOnUse">
<stop stop-color="white" stop-opacity="0.6"/>
<stop offset="0.272727" stop-color="#FFD7CC" stop-opacity="0.72565"/>
<stop offset="0.9996" stop-color="white"/>
<stop offset="0.9997" stop-color="#FFD5CA" stop-opacity="0.731529"/>
<stop offset="0.9998" stop-color="#FFC8B9" stop-opacity="0.773692"/>
<stop offset="0.9999" stop-color="#FF805D"/>
<stop offset="1" stop-color="#FF714A"/>
</linearGradient>
</defs>
</svg>
